<svg width="30" height="30" viewBox="0 0 30 30" fill="none" xmlns="http://www.w3.org/2000/svg">
<path d="M15.125 0.125C19.8193 0.125 23.625 3.93058 23.625 8.625H25.75C28.0973 8.625 30 10.5278 30 12.875H0.25C0.25 9.35419 3.10419 6.5 6.625 6.5H6.89279C7.83638 2.83389 11.1643 0.125 15.125 0.125Z" fill="black" fill-opacity="0.67"/>
<path d="M29.9689 19.2293C29.9689 18.0385 29.0036 17.0732 27.8128 17.0732H2.4372C1.24642 17.0732 0.281098 18.0385 0.281098 19.2293C0.281098 20.42 1.24642 21.3854 2.4372 21.3854H27.8128C29.0036 21.3854 29.9689 20.42 29.9689 19.2293Z" fill="black" fill-opacity="0.67"/>
<path d="M27.875 29.875C29.0486 29.875 30 28.9236 30 27.75C30 26.5764 29.0486 25.625 27.875 25.625H2.375C1.2014 25.625 0.25 26.5764 0.25 27.75C0.25 28.9236 1.2014 29.875 2.375 29.875H27.875Z" fill="black" fill-opacity="0.67"/>
</svg>
